<mxfile host="app.diagrams.net" agent="Mozilla/5.0 (Windows NT 10.0; Win64; x64) AppleWebKit/537.36 (KHTML, like Gecko) Chrome/133.0.0.0 Safari/537.36 Edg/133.0.0.0" version="26.1.0">
  <diagram name="Strona-1" id="K8jwxuM83o0LA1MGKAmm">
    <mxGraphModel dx="1426" dy="789" grid="1" gridSize="10" guides="1" tooltips="1" connect="1" arrows="1" fold="1" page="1" pageScale="1" pageWidth="827" pageHeight="1169" math="0" shadow="0">
      <root>
        <mxCell id="0" />
        <mxCell id="1" parent="0" />
        <mxCell id="wHZPXqqpFxSDbZrYISbQ-1" value="&lt;h1 style=&quot;margin-top: 0px;&quot;&gt;Wymagania funkcjonalne :&lt;/h1&gt;&lt;div&gt;&lt;b&gt;Rejestracja i logowanie&lt;/b&gt;&amp;nbsp; -&amp;nbsp;Utworzenie konta, zalogowanie się do systemu, opcja zmiany hasła &lt;br&gt;lub odzyskania go.&lt;/div&gt;&lt;div&gt;&lt;br&gt;&lt;/div&gt;&lt;div&gt;&lt;b&gt;Tworzenie aukcji&lt;/b&gt; - Opcja wystawienia pojazdu na aukcje, z możliwością wstawienia &lt;br&gt;opisu, zdjęcia, ceny, lokalizacji, podstawowych oraz &lt;br&gt;zaawansowanych informacji o pojeździe.&lt;/div&gt;&lt;div&gt;&lt;br&gt;&lt;/div&gt;&lt;div&gt;&lt;span style=&quot;background-color: transparent; color: light-dark(rgb(0, 0, 0), rgb(255, 255, 255));&quot;&gt;&lt;b&gt;Wyszukiwanie ofert -&lt;/b&gt;&amp;nbsp;Możliwość wyszukania pojazdu z opcją filtrowania. &lt;br&gt;&lt;br&gt;&lt;b&gt;Licytacja &lt;/b&gt;- Możliwość składania ofert podczas trwania licytacji, z opcją &lt;br&gt;automatyzowania tzn. automatyczne przebijanie ceny z opcją &lt;br&gt;ustawienia limitu kwoty.&lt;/span&gt;&lt;/div&gt;&lt;div&gt;&lt;span style=&quot;background-color: transparent; color: light-dark(rgb(0, 0, 0), rgb(255, 255, 255));&quot;&gt;&lt;br&gt;&lt;/span&gt;&lt;/div&gt;&lt;div&gt;&lt;span style=&quot;background-color: transparent; color: light-dark(rgb(0, 0, 0), rgb(255, 255, 255));&quot;&gt;&lt;b&gt;Powiadomienia&lt;/b&gt; - Wysyłanie powiadomień na temat stanu interesującej nas aukcji, &lt;br&gt;wysyłanie powiadomień o ofertach wobec interesujących nas &lt;br&gt;pojazdów, czy zakończeniu obserwowanej przez nas aukcji.&amp;nbsp;&lt;/span&gt;&lt;/div&gt;&lt;div&gt;&lt;span style=&quot;background-color: transparent; color: light-dark(rgb(0, 0, 0), rgb(255, 255, 255));&quot;&gt;&lt;br&gt;&lt;/span&gt;&lt;/div&gt;&lt;div&gt;&lt;span style=&quot;background-color: transparent; color: light-dark(rgb(0, 0, 0), rgb(255, 255, 255));&quot;&gt;&lt;b&gt;Płatności&lt;/b&gt; - Połączenie z zewnętrznymi stronami pozwalającymi na płatność &lt;br&gt;online czy Blikiem np. Przelewy24.&amp;nbsp;&lt;/span&gt;&lt;/div&gt;&lt;div&gt;&lt;span style=&quot;background-color: transparent; color: light-dark(rgb(0, 0, 0), rgb(255, 255, 255));&quot;&gt;&lt;br&gt;&lt;/span&gt;&lt;/div&gt;&lt;div&gt;&lt;span style=&quot;background-color: transparent; color: light-dark(rgb(0, 0, 0), rgb(255, 255, 255));&quot;&gt;&lt;b&gt;Opinie&lt;/b&gt; -&amp;nbsp; Możliwość wystawiania opinii wobec sprzedających, czy pisanie &lt;br&gt;recenzji na temat przebiegu finalizacji aukcji ze sprzedającym.&lt;/span&gt;&lt;/div&gt;" style="text;html=1;whiteSpace=wrap;overflow=hidden;rounded=0;" vertex="1" parent="1">
          <mxGeometry x="40" y="40" width="600" height="370" as="geometry" />
        </mxCell>
        <mxCell id="wHZPXqqpFxSDbZrYISbQ-2" value="&lt;h1 style=&quot;margin-top: 0px;&quot;&gt;Wymagania niefunkcjonalne :&lt;/h1&gt;&lt;div&gt;&lt;b&gt;Wydajność&lt;/b&gt; - System może być użytkowany przez np. 5000 ludzi w tym samym &lt;br&gt;momencie jednocześnie nie tracąc na płynności czy działaniu systemu &lt;br&gt;aukcji.&amp;nbsp;&lt;/div&gt;&lt;div&gt;&lt;br&gt;&lt;/div&gt;&lt;div&gt;&lt;b&gt;Bezpieczeństwo&lt;/b&gt; - Szyfrowanie danych czy zabezpieczenia przed atakami DDoS.&amp;nbsp;&lt;/div&gt;&lt;div&gt;&lt;br&gt;&lt;/div&gt;&lt;div&gt;&lt;b&gt;Dostępność&lt;/b&gt; - System jest dostępny dla użytkowników 24/7.&lt;/div&gt;&lt;div&gt;&lt;span style=&quot;background-color: transparent; color: light-dark(rgb(0, 0, 0), rgb(255, 255, 255));&quot;&gt;&lt;br&gt;&lt;/span&gt;&lt;/div&gt;&lt;div&gt;&lt;span style=&quot;background-color: transparent; color: light-dark(rgb(0, 0, 0), rgb(255, 255, 255));&quot;&gt;&lt;b&gt;Szeroka dostępność&amp;nbsp;&lt;/b&gt;- Dostosowanie interfejsu żeby działał poprawnie na przeglądarce &lt;br&gt;komputerowej, aplikacji, przeglądarce w telefonie czy aplikacji na &lt;br&gt;telefon.&lt;/span&gt;&lt;/div&gt;&lt;div&gt;&lt;span style=&quot;background-color: transparent; color: light-dark(rgb(0, 0, 0), rgb(255, 255, 255));&quot;&gt;&lt;br&gt;&lt;/span&gt;&lt;/div&gt;&lt;div&gt;&lt;b&gt;Zapisywanie danych &lt;/b&gt;- System zapisuje dane dotyczące użytkowników, np. wszystkie wystawione przez niego aukcje w zewnętrznej bazie danych.&lt;/div&gt;" style="text;html=1;whiteSpace=wrap;overflow=hidden;rounded=0;" vertex="1" parent="1">
          <mxGeometry x="40" y="430" width="600" height="270" as="geometry" />
        </mxCell>
        <mxCell id="wHZPXqqpFxSDbZrYISbQ-3" value="&lt;h1 style=&quot;margin-top: 0px;&quot;&gt;User stories :&lt;/h1&gt;&lt;div&gt;Jako sprzedający chciałbym mieć możliwość dodania aukcji w celu sprzedaży pojazdu.&lt;/div&gt;&lt;div&gt;&lt;br&gt;&lt;/div&gt;&lt;div&gt;Jako kupujący chciałbym mieć możliwość filtrowania aukcji w celu znalezienia najlepiej dopasowanej oferty według osobistych upodobań.&lt;/div&gt;&lt;div&gt;&lt;br&gt;&lt;/div&gt;&lt;div&gt;Jako użytkownik chciałbym mieć możliwość oznaczenia np. gwiazdką interesujących mnie aukcji, by mieć później możliwość ją szybciej odnaleźć.&lt;/div&gt;&lt;div&gt;&lt;br&gt;&lt;/div&gt;&lt;div&gt;Jako użytkownik chciałbym móc włączyć sobie otrzymywanie powiadomień z aplikacji, by mieć możliwość śledzenia na biężąco mojej lub interesującej mnie aukcji.&lt;/div&gt;&lt;div&gt;&lt;br&gt;&lt;/div&gt;&lt;div&gt;Jako kupujący chciałbym mieć możliwość bezpośredniego kontaktu ze sprzedającym poprzez np. chat.&lt;/div&gt;&lt;div&gt;&lt;br&gt;&lt;/div&gt;&lt;div&gt;Jako użytkownik chciałbym mieć możliwość skontaktowania się z administracją serwisu jeśli np. doszło by do jakichś niejasności podczas kupowania lub jeśli miałbym jakieś wątpliwości, które bym chciał rozwiać.&lt;/div&gt;&lt;div&gt;&lt;br&gt;&lt;/div&gt;&lt;div&gt;&lt;br&gt;&lt;/div&gt;" style="text;html=1;whiteSpace=wrap;overflow=hidden;rounded=0;" vertex="1" parent="1">
          <mxGeometry x="40" y="700" width="600" height="320" as="geometry" />
        </mxCell>
      </root>
    </mxGraphModel>
  </diagram>
</mxfile>
